<?xml version="1.0" standalone="no"?><svg xmlns="http://www.w3.org/2000/svg" viewBox="0 0 1440 320"><path fill="#0099ff" fill-opacity="1" d="M0,32L21.8,48C43.6,64,87,96,131,122.7C174.5,149,218,171,262,186.7C305.5,203,349,213,393,213.3C436.4,213,480,203,524,186.7C567.3,171,611,149,655,170.7C698.2,192,742,256,785,250.7C829.1,245,873,171,916,138.7C960,107,1004,117,1047,101.3C1090.9,85,1135,43,1178,74.7C1221.8,107,1265,213,1309,229.3C1352.7,245,1396,171,1418,133.3L1440,96L1440,320L1418.2,320C1396.4,320,1353,320,1309,320C1265.5,320,1222,320,1178,320C1134.5,320,1091,320,1047,320C1003.6,320,960,320,916,320C872.7,320,829,320,785,320C741.8,320,698,320,655,320C610.9,320,567,320,524,320C480,320,436,320,393,320C349.1,320,305,320,262,320C218.2,320,175,320,131,320C87.3,320,44,320,22,320L0,320Z"></path></svg>